<svg xmlns="http://www.w3.org/2000/svg" version="1.1" xmlns:xlink="http://www.w3.org/1999/xlink" xmlns:svgjs="http://svgjs.dev/svgjs" width="2000" height="2000" viewBox="0 0 2000 2000"><g transform="matrix(1,0,0,1,-2.63540369277257,0.8122603163916438)"><svg viewBox="0 0 248 248" data-background-color="#c9efc7" preserveAspectRatio="xMidYMid meet" height="2000" width="2000" xmlns="http://www.w3.org/2000/svg" xmlns:xlink="http://www.w3.org/1999/xlink"><g id="tight-bounds" transform="matrix(1,0,0,1,0.3267900579037928,0.4027181264638955)"><svg viewBox="0 0 247.3464198841924 247.2" height="247.2" width="247.3464198841924"><g><svg viewBox="0 0 247.3464198841924 247.2" height="247.2" width="247.3464198841924"><g><svg viewBox="0 0 247.3464198841924 247.2" height="247.2" width="247.3464198841924"><g><svg viewBox="0 0 395.5199999999999 395.28586686549613" height="247.2" width="247.3464198841924"><g transform="matrix(1,0,0,1,0,238.80720376135648)"><svg viewBox="0 0 395.5199999999999 156.47866310413968" height="156.47866310413968" width="395.5199999999999"><g id="textblocktransform"><svg viewBox="0 0 395.5199999999999 156.47866310413968" height="156.47866310413968" width="395.5199999999999" id="textblock"><g><svg viewBox="0 0 395.5199999999999 95.53572303595206" height="95.53572303595206" width="395.5199999999999"><g transform="matrix(1,0,0,1,0,0)"><svg width="395.5199999999999" viewBox="4.25 -35.35 187.74 45.35" height="95.53572303595206" data-palette-color="#528265"><path d="M8.25-17.8L16.6-17.8Q19.4-17.8 21.15-18.65 22.9-19.5 23.73-21.05 24.55-22.6 24.55-24.65L24.55-24.65Q24.55-27.9 22.68-29.7 20.8-31.5 16.6-31.5L16.6-31.5 8.25-31.5 8.25-17.8ZM28.5-24.65L28.5-24.65Q28.5-22.6 27.83-20.73 27.15-18.85 25.7-17.4 24.25-15.95 22-15.13 19.75-14.3 16.6-14.3L16.6-14.3 8.25-14.3 8.25 0 4.25 0 4.25-35 16.6-35Q20.7-35 23.33-33.6 25.95-32.2 27.23-29.85 28.5-27.5 28.5-24.65ZM43.5 0.35L43.5 0.35Q39.95 0.35 37.15-1.2 34.35-2.75 32.75-5.63 31.15-8.5 31.15-12.45L31.15-12.45Q31.15-16.45 32.77-19.35 34.4-22.25 37.22-23.8 40.05-25.35 43.6-25.35L43.6-25.35Q47.15-25.35 49.97-23.8 52.8-22.25 54.42-19.38 56.05-16.5 56.05-12.55L56.05-12.55Q56.05-8.55 54.4-5.65 52.75-2.75 49.9-1.2 47.05 0.35 43.5 0.35ZM43.45-3.2L43.45-3.2Q45.65-3.2 47.6-4.17 49.55-5.15 50.77-7.23 52-9.3 52-12.5L52-12.5Q52-15.75 50.8-17.8 49.6-19.85 47.67-20.83 45.75-21.8 43.55-21.8L43.55-21.8Q41.35-21.8 39.45-20.83 37.55-19.85 36.37-17.78 35.2-15.7 35.2-12.5L35.2-12.5Q35.2-9.25 36.35-7.2 37.5-5.15 39.37-4.17 41.25-3.2 43.45-3.2ZM65.55-5.05L65.55-5.05 65.94-5.1 65.94 10 62.2 10 62.2-25 65.64-25 65.89-20.35Q67.05-22.45 69.3-23.9 71.55-25.35 74.94-25.35L74.94-25.35Q78.19-25.35 80.8-23.78 83.39-22.2 84.89-19.33 86.39-16.45 86.39-12.5L86.39-12.5Q86.39-8.6 84.97-5.73 83.55-2.85 80.97-1.25 78.39 0.35 74.94 0.35L74.94 0.35Q71.34 0.35 69-1.2 66.64-2.75 65.55-5.05ZM82.34-12.5L82.34-12.5Q82.34-16.8 80.12-19.33 77.89-21.85 74.14-21.85L74.14-21.85Q71.8-21.85 69.92-20.75 68.05-19.65 67-17.55 65.94-15.45 65.94-12.5L65.94-12.5Q65.94-9.6 67-7.5 68.05-5.4 69.92-4.28 71.8-3.15 74.14-3.15L74.14-3.15Q77.89-3.15 80.12-5.68 82.34-8.2 82.34-12.5ZM91.19-7.45L94.84-8.9Q95.14-7.55 96.12-6.23 97.09-4.9 98.82-4.03 100.54-3.15 103.24-3.15L103.24-3.15Q107.09-3.15 108.94-4.95 110.79-6.75 110.79-9.2L110.79-9.2Q110.79-11.15 109.74-12.4 108.69-13.65 106.89-14.48 105.09-15.3 102.84-15.95L102.84-15.95Q100.84-16.5 98.87-17.18 96.89-17.85 95.29-18.88 93.69-19.9 92.74-21.55 91.79-23.2 91.79-25.65L91.79-25.65Q91.79-28.6 93.19-30.78 94.59-32.95 97.14-34.15 99.69-35.35 103.09-35.35L103.09-35.35Q106.04-35.35 108.24-34.5 110.44-33.65 111.92-32.13 113.39-30.6 114.09-28.6L114.09-28.6 110.54-27.25Q110.19-28.4 109.19-29.48 108.19-30.55 106.59-31.25 104.99-31.95 102.94-31.95L102.94-31.95Q100.94-31.95 99.32-31.25 97.69-30.55 96.74-29.25 95.79-27.95 95.79-26.1L95.79-26.1Q95.79-24.1 96.92-22.93 98.04-21.75 99.92-21.03 101.79-20.3 104.04-19.65L104.04-19.65Q106.09-19 108.02-18.25 109.94-17.5 111.47-16.4 112.99-15.3 113.89-13.65 114.79-12 114.79-9.6L114.79-9.6Q114.79-6.95 113.54-4.67 112.29-2.4 109.77-1.03 107.24 0.35 103.29 0.35L103.29 0.35Q99.99 0.35 97.49-0.68 94.99-1.7 93.39-3.45 91.79-5.2 91.19-7.45L91.19-7.45ZM124.54-5.05L124.54-5.05 124.94-5.1 124.94 10 121.19 10 121.19-25 124.64-25 124.89-20.35Q126.04-22.45 128.29-23.9 130.54-25.35 133.94-25.35L133.94-25.35Q137.19-25.35 139.79-23.78 142.39-22.2 143.89-19.33 145.39-16.45 145.39-12.5L145.39-12.5Q145.39-8.6 143.97-5.73 142.54-2.85 139.97-1.25 137.39 0.35 133.94 0.35L133.94 0.35Q130.34 0.35 127.99-1.2 125.64-2.75 124.54-5.05ZM141.34-12.5L141.34-12.5Q141.34-16.8 139.12-19.33 136.89-21.85 133.14-21.85L133.14-21.85Q130.79-21.85 128.91-20.75 127.04-19.65 125.99-17.55 124.94-15.45 124.94-12.5L124.94-12.5Q124.94-9.6 125.99-7.5 127.04-5.4 128.91-4.28 130.79-3.15 133.14-3.15L133.14-3.15Q136.89-3.15 139.12-5.68 141.34-8.2 141.34-12.5ZM162.29 0.35L162.29 0.35Q158.74 0.35 155.94-1.2 153.14-2.75 151.54-5.63 149.94-8.5 149.94-12.45L149.94-12.45Q149.94-16.45 151.56-19.35 153.19-22.25 156.01-23.8 158.84-25.35 162.39-25.35L162.39-25.35Q165.94-25.35 168.76-23.8 171.59-22.25 173.21-19.38 174.84-16.5 174.84-12.55L174.84-12.55Q174.84-8.55 173.19-5.65 171.54-2.75 168.69-1.2 165.84 0.35 162.29 0.35ZM162.24-3.2L162.24-3.2Q164.44-3.2 166.39-4.17 168.34-5.15 169.56-7.23 170.79-9.3 170.79-12.5L170.79-12.5Q170.79-15.75 169.59-17.8 168.39-19.85 166.46-20.83 164.54-21.8 162.34-21.8L162.34-21.8Q160.14-21.8 158.24-20.83 156.34-19.85 155.16-17.78 153.99-15.7 153.99-12.5L153.99-12.5Q153.99-9.25 155.14-7.2 156.29-5.15 158.16-4.17 160.04-3.2 162.24-3.2ZM177.84-25L181.59-25 181.59-32 185.34-32 185.34-25 191.99-25 191.99-21.5 185.34-21.5 185.34-8.05Q185.34-5.75 186.31-4.7 187.29-3.65 188.81-3.45 190.34-3.25 191.99-3.45L191.99-3.45 191.99-0.2Q190.04 0.25 188.16 0.05 186.29-0.15 184.81-1.07 183.34-2 182.46-3.7 181.59-5.4 181.59-8.05L181.59-8.05 181.59-21.5 177.84-21.5 177.84-25Z" opacity="1" transform="matrix(1,0,0,1,0,0)" fill="#528265" class="wordmark-text-0" data-fill-palette-color="primary" id="text-0"></path></svg></g></svg></g><g transform="matrix(1,0,0,1,0,118.08941438738748)"><svg viewBox="0 0 395.5199999999999 38.38924871675221" height="38.38924871675221" width="395.5199999999999"><g transform="matrix(1,0,0,1,0,0)"><svg width="395.5199999999999" viewBox="0 -38.38 523.14 50.78" height="38.38924871675221" data-palette-color="#528265"><path d="M19.04-28.59L19.04-1.29Q19.04-0.56 18.74-0.28 18.43 0 17.7 0L17.7 0 12.5 0Q11.77 0 11.46-0.28 11.16-0.56 11.16-1.29L11.16-1.29 11.16-28.59 3.88-28.59Q3.3-28.59 3-28.78L3-28.78Q2.37-29.22 1.7-29.83 1.03-30.44 0.24-31.3L0.24-31.3Q0-31.62 0-31.81L0-31.81Q0-32.03 0.24-32.3L0.24-32.3Q1.03-33.15 1.7-33.76 2.37-34.38 3-34.81L3-34.81Q3.34-35.01 3.88-35.01L3.88-35.01 26.34-35.01Q26.93-35.01 27.22-34.81L27.22-34.81Q27.86-34.38 28.54-33.76 29.22-33.15 29.98-32.3L29.98-32.3Q30.22-31.98 30.22-31.79L30.22-31.79Q30.22-31.57 29.98-31.3L29.98-31.3Q29.22-30.44 28.54-29.83 27.86-29.22 27.22-28.78L27.22-28.78Q26.88-28.59 26.34-28.59L26.34-28.59 19.04-28.59ZM41.23-16.46L41.23-1.29Q41.23-0.56 40.93-0.28 40.62 0 39.89 0L39.89 0 34.86 0Q34.13 0 33.82-0.28 33.52-0.56 33.52-1.29L33.52-1.29 33.52-34.33Q33.52-34.91 33.76-35.23L33.76-35.23Q34.79-36.57 36.77-38.13L36.77-38.13Q37.11-38.38 37.38-38.38L37.38-38.38Q37.69-38.38 37.99-38.13L37.99-38.13Q39.04-37.33 39.76-36.62 40.48-35.91 40.99-35.23L40.99-35.23Q41.23-34.91 41.23-34.33L41.23-34.33 41.23-22.49 41.33-22.49Q41.87-23.19 42.72-23.91 43.58-24.63 45-25.12 46.43-25.61 48.65-25.61L48.65-25.61Q50.9-25.61 52.98-24.68 55.05-23.75 56.37-21.56 57.69-19.36 57.69-15.55L57.69-15.55 57.69-1.29Q57.69-0.56 57.38-0.28 57.08 0 56.35 0L56.35 0 51.32 0Q50.58 0 50.28-0.28 49.97-0.56 49.97-1.29L49.97-1.29 49.97-14.21Q49.97-16.92 48.85-18.15 47.73-19.38 45.8-19.38L45.8-19.38Q43.89-19.38 42.84-18.55 41.79-17.72 41.23-16.46L41.23-16.46ZM76.53 0.61L76.53 0.61Q72.41 0.61 69.36-0.72 66.3-2.05 64.62-4.86 62.93-7.67 62.93-12.11L62.93-12.11Q62.93-18.77 66.35-22.19 69.77-25.61 75.43-25.61L75.43-25.61Q79.12-25.61 81.67-24.29 84.22-22.97 85.55-20.65 86.88-18.33 86.88-15.36L86.88-15.36Q86.88-12.45 85.4-11.3 83.91-10.16 81.05-10.16L81.05-10.16 70.58-10.16Q70.77-7.64 72.42-6.32 74.07-5 76.9-5L76.9-5Q79.15-5 80.5-5.68 81.86-6.35 82.39-6.74L82.39-6.74Q82.86-7.08 83.44-7.06L83.44-7.06Q83.91-7.06 84.77-6.87 85.64-6.69 86.49-6.2L86.49-6.2Q87.1-5.88 87.1-5.32L87.1-5.32Q87.1-5 86.98-4.42L86.98-4.42Q86.91-4.08 86.74-3.43 86.57-2.78 86.3-2.22L86.3-2.22Q86.15-1.95 85.83-1.71L85.83-1.71Q85.35-1.37 84.26-0.81 83.17-0.24 81.29 0.18 79.41 0.61 76.53 0.61ZM70.53-15.16L70.53-15.16 78.49-15.16Q79.73-15.16 79.73-16.31L79.73-16.31Q79.73-18.04 78.64-19.23 77.56-20.41 75.39-20.41L75.39-20.41Q73.02-20.41 71.91-18.9 70.8-17.38 70.53-15.16ZM116.13 0.59L116.13 0.59Q113.03 0.59 110.99 0.02 108.95-0.54 107.72-1.38 106.48-2.22 105.82-3.05L105.82-3.05Q105.61-3.37 105.43-3.66 105.26-3.96 105.19-4.32L105.19-4.32Q105.09-4.81 104.99-5.6 104.9-6.4 104.97-7.45L104.97-7.45Q104.99-7.89 105.14-8.06L105.14-8.06Q105.31-8.25 105.7-8.35L105.7-8.35Q106.41-8.52 107.55-8.65 108.68-8.79 109.17-8.79L109.17-8.79Q109.68-8.79 110-8.59 110.32-8.4 110.76-7.93L110.76-7.93Q111.24-7.42 112.44-6.63 113.64-5.83 116.13-5.83L116.13-5.83Q118.52-5.83 119.74-6.84 120.96-7.84 120.96-9.62L120.96-9.62Q120.96-10.57 120.39-11.41 119.81-12.26 118.3-13.1 116.79-13.94 113.98-14.87L113.98-14.87Q109.34-16.43 107.29-18.75 105.24-21.07 105.24-25.2L105.24-25.2Q105.24-28.61 106.9-30.91 108.56-33.2 111.49-34.38 114.42-35.55 118.25-35.55L118.25-35.55Q121.21-35.55 123.15-34.85 125.09-34.16 126.16-33.29 127.24-32.42 127.55-31.88L127.55-31.88Q127.75-31.57 127.81-31.41 127.87-31.25 127.9-30.98L127.9-30.98Q127.97-30.22 127.94-29.3 127.92-28.37 127.77-27.2L127.77-27.2Q127.7-26.81 127.5-26.66L127.5-26.66Q127.33-26.54 126.97-26.54L126.97-26.54Q124.6-26.49 123.31-26.78L123.31-26.78Q122.79-26.9 122.62-27.03 122.45-27.15 122.18-27.42L122.18-27.42Q121.79-27.88 120.95-28.5 120.11-29.13 118.25-29.13L118.25-29.13Q115.69-29.13 114.61-27.97 113.54-26.81 113.54-25.37L113.54-25.37Q113.54-23.66 115.13-22.69 116.71-21.73 120.13-20.51L120.13-20.51Q122.99-19.51 125.04-18.33 127.09-17.16 128.18-15.33 129.26-13.5 129.26-10.5L129.26-10.5Q129.26-6.76 127.54-4.3 125.82-1.83 122.85-0.62 119.89 0.59 116.13 0.59ZM150.3-25.61L150.3-25.61Q153.87-25.61 156.18-24.01 158.48-22.41 159.62-19.62 160.75-16.82 160.75-13.21L160.75-13.21Q160.75-9.3 159.42-6.18 158.09-3.05 155.51-1.22 152.92 0.61 149.08 0.61L149.08 0.61Q147.11 0.61 145.82 0.16 144.54-0.29 143.77-0.92 143.01-1.54 142.57-2.05L142.57-2.05 142.47-2.05 142.47 8.35Q142.47 8.94 142.22 9.25L142.22 9.25Q141.2 10.6 139.22 12.16L139.22 12.16Q138.88 12.4 138.61 12.4L138.61 12.4Q138.32 12.4 138 12.16L138 12.16Q136.95 11.35 136.23 10.64 135.51 9.94 135 9.25L135 9.25Q134.75 8.94 134.75 8.35L134.75 8.35 134.75-21.75Q134.75-22.34 135-22.66L135-22.66Q135.51-23.34 136.23-24.05 136.95-24.76 138-25.56L138-25.56Q138.32-25.81 138.66-25.81L138.66-25.81Q138.98-25.81 139.32-25.56L139.32-25.56Q140.34-24.76 141.08-24.02 141.81-23.29 142.37-22.51L142.37-22.51 142.49-22.51Q142.91-23.02 143.76-23.75 144.62-24.49 146.19-25.05 147.77-25.61 150.3-25.61ZM147.3-5.62L147.3-5.62Q149.94-5.62 151.39-7.46 152.84-9.3 152.84-12.79L152.84-12.79Q152.84-19.38 147.42-19.38L147.42-19.38Q145.13-19.38 144.03-18.44 142.93-17.5 142.47-16.46L142.47-16.46 142.47-11.16Q142.47-8.79 143.69-7.2 144.91-5.62 147.3-5.62ZM177.99 0.61L177.99 0.61Q171.84 0.61 168.25-2.66 164.66-5.93 164.66-12.4L164.66-12.4Q164.66-19.04 168.38-22.33 172.1-25.61 178.33-25.61L178.33-25.61Q184.34-25.61 187.95-22.38 191.56-19.14 191.56-12.84L191.56-12.84Q191.56-6.27 187.95-2.83 184.34 0.61 177.99 0.61ZM178.23-5.3L178.23-5.3Q180.92-5.3 182.28-6.97 183.65-8.64 183.65-12.7L183.65-12.7Q183.65-16.55 182.27-18.13 180.89-19.7 178.18-19.7L178.18-19.7Q175.57-19.7 174.07-18.01 172.57-16.31 172.57-12.5L172.57-12.5Q172.57-8.52 174-6.91 175.42-5.3 178.23-5.3ZM206.7 0.61L206.7 0.61Q198.54 0.61 198.54-7.86L198.54-7.86 198.54-19.31 195.78-19.31Q195.05-19.31 194.77-19.62 194.49-19.92 194.49-20.65L194.49-20.65 194.49-23.66Q194.49-24.39 194.77-24.69 195.05-25 195.78-25L195.78-25 198.54-25 198.54-28.93Q198.54-29.52 198.79-29.83L198.79-29.83Q199.81-31.18 201.79-32.74L201.79-32.74Q202.13-32.98 202.4-32.98L202.4-32.98Q202.69-32.98 202.99-32.74L202.99-32.74Q204.04-31.93 204.76-31.23 205.48-30.52 205.99-29.83L205.99-29.83Q206.23-29.52 206.23-28.93L206.23-28.93 206.23-25 210.55-25Q211.29-25 211.57-24.69 211.85-24.39 211.85-23.66L211.85-23.66 211.85-20.65Q211.85-19.92 211.57-19.62 211.29-19.31 210.55-19.31L210.55-19.31 206.23-19.31 206.23-9.2Q206.23-5.3 209.06-5.3L209.06-5.3Q209.5-5.3 209.87-5.38 210.24-5.47 210.5-5.57L210.5-5.57Q211.02-5.76 211.23-5.71 211.43-5.66 211.6-5.18L211.6-5.18 213.02-1.39Q213.24-0.78 212.73-0.51L212.73-0.51Q212.36-0.34 210.96 0.13 209.55 0.61 206.7 0.61ZM240.58-19.31L240.58-1.29Q240.58-0.56 240.27-0.28 239.97 0 239.24 0L239.24 0 234.21 0Q233.47 0 233.17-0.28 232.86-0.56 232.86-1.29L232.86-1.29 232.86-19.31 229.98-19.31Q229.25-19.31 228.97-19.62 228.69-19.92 228.69-20.65L228.69-20.65 228.69-23.66Q228.69-24.39 228.97-24.69 229.25-25 229.98-25L229.98-25 232.86-25 232.86-28.1Q232.86-31.05 234.05-33.18 235.23-35.3 237.25-36.45 239.26-37.6 241.73-37.6L241.73-37.6Q242.87-37.6 243.47-37.5 244.07-37.4 244.36-37.21L244.36-37.21Q245.31-36.67 247-35.01L247-35.01Q247.27-34.72 247.27-34.42L247.27-34.42Q247.27-34.11 246.85-33.69L246.85-33.69Q246.12-32.93 245.46-32.41 244.8-31.88 244.39-31.62L244.39-31.62Q244.02-31.4 243.74-31.36 243.46-31.32 242.97-31.32L242.97-31.32Q240.58-31.32 240.58-27.66L240.58-27.66 240.58-25 245-25Q245.73-25 246.01-24.69 246.29-24.39 246.29-23.66L246.29-23.66 246.29-20.65Q246.29-19.92 246.01-19.62 245.73-19.31 245-19.31L245-19.31 240.58-19.31ZM261.96 0.61L261.96 0.61Q255.81 0.61 252.22-2.66 248.63-5.93 248.63-12.4L248.63-12.4Q248.63-19.04 252.36-22.33 256.08-25.61 262.3-25.61L262.3-25.61Q268.31-25.61 271.92-22.38 275.54-19.14 275.54-12.84L275.54-12.84Q275.54-6.27 271.92-2.83 268.31 0.61 261.96 0.61ZM262.21-5.3L262.21-5.3Q264.89-5.3 266.26-6.97 267.63-8.64 267.63-12.7L267.63-12.7Q267.63-16.55 266.25-18.13 264.87-19.7 262.16-19.7L262.16-19.7Q259.55-19.7 258.04-18.01 256.54-16.31 256.54-12.5L256.54-12.5Q256.54-8.52 257.97-6.91 259.4-5.3 262.21-5.3ZM288.5-22.17L288.5-20.36 288.6-20.36Q290.43-25.44 295.19-25.44L295.19-25.44Q295.8-25.44 296.19-25.38 296.58-25.32 296.73-25.27L296.73-25.27Q297.09-25.15 297.09-24.71L297.09-24.71 297.09-18.82Q297.09-18.07 296.21-18.41L296.21-18.41Q295.92-18.53 295.37-18.66 294.82-18.8 293.84-18.8L293.84-18.8Q291.33-18.8 289.91-16.96 288.5-15.11 288.5-11.94L288.5-11.94 288.5-1.29Q288.5-0.56 288.19-0.28 287.89 0 287.16 0L287.16 0 282.13 0Q281.39 0 281.09-0.28 280.78-0.56 280.78-1.29L280.78-1.29 280.78-21.75Q280.78-22.34 281.03-22.66L281.03-22.66Q281.54-23.34 282.26-24.05 282.98-24.76 284.03-25.56L284.03-25.56Q284.23-25.71 284.42-25.76 284.62-25.81 284.76-25.81L284.76-25.81Q285.1-25.81 285.45-25.56L285.45-25.56Q287.47-23.97 288.28-22.85L288.28-22.85Q288.5-22.56 288.5-22.17L288.5-22.17ZM328.39-11.69L328.39-11.69Q327.75-11.69 327.31-12.01L327.31-12.01Q326.85-12.33 326.21-12.92 325.58-13.5 324.8-14.36L324.8-14.36Q324.5-14.7 324.5-14.97L324.5-14.97Q324.5-15.23 324.8-15.58L324.8-15.58Q326.31-17.29 327.56-18.09L327.56-18.09Q327.85-18.29 328.39-18.29L328.39-18.29Q330.05-18.29 331.25-19.53 332.46-20.78 332.41-23.56L332.41-23.56Q332.39-26.56 330.94-27.76 329.48-28.96 326.97-28.96L326.97-28.96 325.8-28.96Q324.19-28.96 323.6-28.27 323.01-27.59 323.01-25.93L323.01-25.93 323.01-1.29Q323.01-0.56 322.71-0.28 322.4 0 321.67 0L321.67 0 316.47 0Q315.74 0 315.43-0.28 315.13-0.56 315.13-1.29L315.13-1.29 315.13-28.47Q315.13-30.91 315.58-32.34 316.03-33.76 317.34-34.39 318.64-35.01 321.16-35.01L321.16-35.01 326.97-35.01Q333.98-35.01 337.35-32.26 340.71-29.52 340.71-23.85L340.71-23.85Q340.71-19.6 338.94-16.92 337.17-14.23 334.35-12.96 331.53-11.69 328.39-11.69ZM357.46 0.61L357.46 0.61Q351.31 0.61 347.72-2.66 344.13-5.93 344.13-12.4L344.13-12.4Q344.13-19.04 347.85-22.33 351.58-25.61 357.8-25.61L357.8-25.61Q363.81-25.61 367.42-22.38 371.03-19.14 371.03-12.84L371.03-12.84Q371.03-6.27 367.42-2.83 363.81 0.61 357.46 0.61ZM357.7-5.3L357.7-5.3Q360.39-5.3 361.76-6.97 363.12-8.64 363.12-12.7L363.12-12.7Q363.12-16.55 361.74-18.13 360.37-19.7 357.66-19.7L357.66-19.7Q355.04-19.7 353.54-18.01 352.04-16.31 352.04-12.5L352.04-12.5Q352.04-8.52 353.47-6.91 354.9-5.3 357.7-5.3ZM391.83-25.61L391.83-25.61Q395.4-25.61 397.7-24.01 400.01-22.41 401.15-19.62 402.28-16.82 402.28-13.21L402.28-13.21Q402.28-9.3 400.95-6.18 399.62-3.05 397.03-1.22 394.44 0.61 390.61 0.61L390.61 0.61Q388.63 0.61 387.35 0.16 386.07-0.29 385.3-0.92 384.53-1.54 384.09-2.05L384.09-2.05 384-2.05 384 8.35Q384 8.94 383.75 9.25L383.75 9.25Q382.73 10.6 380.75 12.16L380.75 12.16Q380.41 12.4 380.14 12.4L380.14 12.4Q379.85 12.4 379.53 12.16L379.53 12.16Q378.48 11.35 377.76 10.64 377.04 9.94 376.53 9.25L376.53 9.25Q376.28 8.94 376.28 8.35L376.28 8.35 376.28-21.75Q376.28-22.34 376.53-22.66L376.53-22.66Q377.04-23.34 377.76-24.05 378.48-24.76 379.53-25.56L379.53-25.56Q379.85-25.81 380.19-25.81L380.19-25.81Q380.5-25.81 380.85-25.56L380.85-25.56Q381.87-24.76 382.6-24.02 383.34-23.29 383.9-22.51L383.9-22.51 384.02-22.51Q384.44-23.02 385.29-23.75 386.14-24.49 387.72-25.05 389.29-25.61 391.83-25.61ZM388.83-5.62L388.83-5.62Q391.47-5.62 392.92-7.46 394.37-9.3 394.37-12.79L394.37-12.79Q394.37-19.38 388.95-19.38L388.95-19.38Q386.66-19.38 385.56-18.44 384.46-17.5 384-16.46L384-16.46 384-11.16Q384-8.79 385.22-7.2 386.44-5.62 388.83-5.62ZM420.37-10.4L408.53-10.4Q407.77-10.4 407.77-11.16L407.77-11.16 407.77-15.53Q407.77-16.28 408.53-16.28L408.53-16.28 420.37-16.28Q421.13-16.28 421.13-15.53L421.13-15.53 421.13-11.16Q421.13-10.4 420.37-10.4L420.37-10.4ZM436.68 0.61L436.68 0.61Q427.98 0.61 427.98-9.91L427.98-9.91 427.96-22.31Q427.96-22.9 428.2-23.22L428.2-23.22Q429.23-24.56 431.21-26.12L431.21-26.12Q431.55-26.37 431.82-26.37L431.82-26.37Q432.14-26.37 432.43-26.12L432.43-26.12Q433.48-25.32 434.2-24.61 434.92-23.9 435.43-23.22L435.43-23.22Q435.68-22.9 435.68-22.31L435.68-22.31 435.68-10.6Q435.68-5.3 439.87-5.3L439.87-5.3Q441.95-5.3 443.19-6.75 444.44-8.2 444.44-10.69L444.44-10.69 444.44-22.31Q444.44-22.9 444.68-23.22L444.68-23.22Q445.71-24.56 447.69-26.12L447.69-26.12Q448.03-26.37 448.3-26.37L448.3-26.37Q448.61-26.37 448.91-26.12L448.91-26.12Q449.96-25.32 450.68-24.61 451.4-23.9 451.91-23.22L451.91-23.22Q452.15-22.9 452.15-22.31L452.15-22.31 452.15-1.12Q452.15-0.66 451.84-0.33 451.52 0 451.03 0L451.03 0 447.37 0Q446.98 0 446.67-0.11 446.37-0.22 446.1-0.54L446.1-0.54 444.59-2.49 444.42-2.49Q444.02-1.93 443.21-1.2 442.39-0.46 440.84 0.07 439.29 0.61 436.68 0.61ZM474.3-25.61L474.3-25.61Q477.86-25.61 480.17-24.01 482.47-22.41 483.61-19.62 484.75-16.82 484.75-13.21L484.75-13.21Q484.75-9.3 483.41-6.18 482.08-3.05 479.5-1.22 476.91 0.61 473.08 0.61L473.08 0.61Q471.1 0.61 469.82 0.16 468.53-0.29 467.77-0.92 467-1.54 466.56-2.05L466.56-2.05 466.46-2.05 466.46 8.35Q466.46 8.94 466.21 9.25L466.21 9.25Q465.19 10.6 463.21 12.16L463.21 12.16Q462.87 12.4 462.6 12.4L462.6 12.4Q462.31 12.4 461.99 12.16L461.99 12.16Q460.94 11.35 460.22 10.64 459.5 9.94 458.99 9.25L458.99 9.25Q458.74 8.94 458.74 8.35L458.74 8.35 458.74-21.75Q458.74-22.34 458.99-22.66L458.99-22.66Q459.5-23.34 460.22-24.05 460.94-24.76 461.99-25.56L461.99-25.56Q462.31-25.81 462.65-25.81L462.65-25.81Q462.97-25.81 463.31-25.56L463.31-25.56Q464.33-24.76 465.07-24.02 465.8-23.29 466.36-22.51L466.36-22.51 466.48-22.51Q466.9-23.02 467.75-23.75 468.61-24.49 470.18-25.05 471.76-25.61 474.3-25.61ZM471.29-5.62L471.29-5.62Q473.93-5.62 475.38-7.46 476.83-9.3 476.83-12.79L476.83-12.79Q476.83-19.38 471.41-19.38L471.41-19.38Q469.12-19.38 468.02-18.44 466.92-17.5 466.46-16.46L466.46-16.46 466.46-11.16Q466.46-8.79 467.68-7.2 468.9-5.62 471.29-5.62ZM496.95 0.61L496.95 0.61Q494.34 0.61 492.62 0.17 490.89-0.27 489.86-0.89 488.82-1.51 488.23-2.03L488.23-2.03Q487.79-2.44 488.14-2.95L488.14-2.95 490.63-6.64Q491.16-7.42 491.85-6.74L491.85-6.74Q492.56-6.05 493.76-5.41 494.97-4.76 496.78-4.76L496.78-4.76Q498.39-4.76 499.43-5.31 500.47-5.86 500.47-6.91L500.47-6.91Q500.47-7.64 500-8.11 499.54-8.57 498.37-9.06 497.19-9.55 495.09-10.3L495.09-10.3Q491.99-11.43 490.41-13.01 488.82-14.6 488.82-17.65L488.82-17.65Q488.82-20.46 490.37-22.22 491.92-23.97 494.35-24.79 496.78-25.61 499.42-25.61L499.42-25.61Q502.76-25.61 504.12-24.99 505.47-24.37 505.86-24.02L505.86-24.02Q506.23-23.71 506.37-23.29L506.37-23.29Q506.69-22.34 506.86-20.78L506.86-20.78Q506.96-19.87 506.4-19.58L506.4-19.58Q506.1-19.41 505.47-19.21 504.84-19.02 504.2-18.87 503.57-18.73 503.25-18.73L503.25-18.73Q503.15-18.73 503.04-18.79 502.93-18.85 502.66-19.09L502.66-19.09Q502.35-19.41 501.58-19.82 500.81-20.24 499.46-20.24L499.46-20.24Q498.15-20.24 497.25-19.81 496.36-19.38 496.36-18.31L496.36-18.31Q496.36-17.14 497.5-16.55 498.63-15.97 501.25-15.04L501.25-15.04Q503.3-14.33 504.82-13.49 506.35-12.65 507.18-11.29 508.01-9.94 508.01-7.64L508.01-7.64Q508.01-4.66 506.39-2.84 504.76-1.03 502.24-0.21 499.71 0.61 496.95 0.61ZM519.68-12.35L515.53-12.35Q514.48-12.35 514.43-13.53L514.43-13.53 513.5-33.81Q513.45-35.01 514.65-35.01L514.65-35.01 520.6-35.01Q521.8-35.01 521.75-33.81L521.75-33.81 520.78-13.53Q520.73-12.35 519.68-12.35L519.68-12.35ZM512.55-4.22L512.55-4.22Q512.55-4.54 512.76-4.8 512.96-5.05 513.3-5.47L513.3-5.47Q514.04-6.3 514.99-7.21 515.94-8.13 516.94-8.98L516.94-8.98Q517.55-9.47 517.85-9.47L517.85-9.47Q518.14-9.47 518.8-8.98L518.8-8.98Q520.85-7.2 522.39-5.47L522.39-5.47Q522.7-5.05 522.92-4.8 523.14-4.54 523.14-4.22L523.14-4.22Q523.14-3.88 522.91-3.61 522.68-3.34 522.36-2.91L522.36-2.91Q521.65-2.1 520.71-1.21 519.77-0.32 518.8 0.54L518.8 0.54Q518.19 1.05 517.85 1.05L517.85 1.05Q517.58 1.05 516.89 0.54L516.89 0.54Q515.84-0.32 514.94-1.22 514.04-2.12 513.3-2.98L513.3-2.98Q512.96-3.39 512.76-3.64 512.55-3.88 512.55-4.22Z" opacity="1" transform="matrix(1,0,0,1,0,0)" fill="#528265" class="slogan-text-1" data-fill-palette-color="secondary" id="text-1"></path></svg></g></svg></g></svg></g></svg></g><g transform="matrix(1,0,0,1,97.69995198024725,0)"><svg viewBox="0 0 200.12009603950543 216.25351240992106" height="216.25351240992106" width="200.12009603950543"><g><svg xmlns="http://www.w3.org/2000/svg" xmlns:xlink="http://www.w3.org/1999/xlink" version="1.1" x="0" y="0" viewBox="26.811 23.304999727047715 91.79001145264695 99.19000027295229" enable-background="new 0 0 144.083 144" xml:space="preserve" height="216.25351240992106" width="200.12009603950543" class="icon-icon-0" data-fill-palette-color="accent" id="icon-0"><path d="M118.5 48.449L109.055 24.259A1.5 1.5 0 0 0 107.657 23.305H37.732C37.114 23.305 36.558 23.685 36.335 24.261L26.914 48.451A1.5 1.5 0 0 0 26.811 48.995V54.52C26.811 59.132 30.391 62.99 35.131 63.871L38.245 86.852V114.386C38.245 114.468 38.257 114.548 38.269 114.627H38.245V122.495H41.245V115.886H104.142V122.495H107.142V114.627H107.119A2 2 0 0 0 107.142 114.386V86.853L110.255 63.875C115.009 63.004 118.601 59.142 118.601 54.521V48.996A1.5 1.5 0 0 0 118.5 48.449M106.633 26.305L114.906 47.495H100.226L98.343 26.305zM97.842 54.561C97.817 58.149 94.518 61.062 90.465 61.062 86.397 61.062 83.086 58.127 83.086 54.521 83.086 54.505 83.082 54.492 83.082 54.476H83.086L82.967 50.496H97.481zM95.333 26.305L97.216 47.495H82.879L82.25 26.305zM66.162 26.305H79.25L79.877 47.495H65.536zM65.447 50.495H79.967L80.086 54.524C80.084 58.128 76.773 61.061 72.707 61.061 68.639 61.061 65.331 58.128 65.328 54.524zM50.079 26.305H63.161L62.535 47.495H48.199zM47.934 50.495H62.447L62.33 54.476H62.334C62.333 54.492 62.329 54.505 62.329 54.52 62.329 58.126 59.018 61.061 54.949 61.061 50.896 61.061 47.598 58.148 47.573 54.56zM38.758 26.305H47.068L45.188 47.495H30.506zM29.812 54.521V50.496H44.922L44.576 54.389 44.584 54.39C44.58 54.434 44.57 54.476 44.57 54.522 44.57 58.128 41.26 61.063 37.192 61.063 33.123 61.062 29.812 58.127 29.812 54.521M104.143 112.887H41.246V85.418H104.143zM104.717 82.418H40.672L38.177 64.002C41.52 63.709 44.411 61.97 46.071 59.457 47.892 62.215 51.19 64.061 54.949 64.061S62.008 62.214 63.829 59.457C65.65 62.215 68.949 64.061 72.708 64.061 76.468 64.061 79.767 62.214 81.587 59.457 83.409 62.215 86.708 64.061 90.466 64.061 94.226 64.061 97.525 62.214 99.345 59.457 101.001 61.963 103.882 63.701 107.214 64zM115.602 54.521C115.602 58.127 112.293 61.062 108.225 61.062 104.155 61.062 100.844 58.127 100.844 54.521 100.844 54.475 100.834 54.433 100.83 54.389L100.838 54.388 100.492 50.495H115.601V54.521z" fill="#528265" data-fill-palette-color="accent"></path></svg></g></svg></g><g></g></svg></g></svg></g></svg></g><defs></defs></svg><rect width="247.3464198841924" height="247.2" fill="none" stroke="none" visibility="hidden"></rect></g></svg></g></svg>